<svg version="1.1" xmlns="http://www.w3.org/2000/svg" width="1077" height="1077" id="Layer_1" data-name="Layer 1" xmlns="http://www.w3.org/2000/svg">
  <defs>
    <style>
      .cls-1, .cls-2 {
      stroke-width: 0px;
      }

      .cls-2 {
      fill: #fff;
      }
    </style>
  </defs>
  <path d="M0 0 C7.875 6.75 7.875 6.75 11.21005672 10.08585823 C11.97259814 10.84615235 12.73513955 11.60644647 13.52078828 12.38977981 C14.33826316 13.2098817 15.15573804 14.02998359 15.99798489 14.87493706 C16.88570449 15.76150281 17.77342409 16.64806857 18.68804428 17.56149995 C21.14733798 20.01773708 23.60351684 22.47706823 26.05919027 24.93692408 C28.73302333 27.61420125 31.40976872 30.28856405 34.08614355 32.96329987 C38.77474823 37.64983324 43.46149547 42.33821769 48.14702797 47.02782249 C55.11423736 54.00107042 62.08431555 60.97144555 69.05498347 67.94123601 C80.78104467 79.66598365 92.50477779 91.39305655 104.2271862 103.12145615 C115.83396332 114.73415015 127.44177378 126.34580964 139.05096626 137.95608902 C139.77277176 138.67796325 140.49457725 139.39983749 141.23825564 140.1435867 C144.90394164 143.80961103 148.56964612 147.4756169 152.23535771 151.14161564 C178.20000276 177.10836114 204.16232853 203.07742438 230.12329102 229.04785156 C255.34412203 254.27786682 280.5660031 279.5068316 305.78930664 304.734375 C306.56678909 305.51198897 307.34427153 306.28960295 308.14531406 307.09078098 C315.95310863 314.89989407 323.76092455 322.70898581 331.56875612 330.5180619 C347.4742296 346.4260716 363.37956054 362.33422379 379.2848053 378.24246216 C380.016104 378.97389815 380.7474027 379.70533414 381.50086196 380.45893485 C430.33629576 429.30356942 479.16840691 478.15152579 528 527 C533.62936826 522.3143222 538.82709602 517.31158012 543.99519157 512.12506294 C544.88261158 511.23849719 545.77003158 510.35193143 546.6843431 509.43850005 C549.1428067 506.98226543 551.59814999 504.52293244 554.05298891 502.06307592 C556.72592558 499.38579157 559.4017855 496.71143157 562.07727635 494.03670013 C566.76434673 489.35016228 571.44956365 484.66177793 576.13356972 479.97217751 C583.09853938 472.99891262 590.06639178 466.02853361 597.0348589 459.05876399 C608.75735641 447.33393237 620.47759489 435.60684512 632.19662094 423.87854385 C648.19321828 407.86934629 664.19309292 391.86342717 680.19384708 375.85838436 C687.64623947 368.40398571 695.09847125 360.9494265 702.55066109 353.49482536 C703.29664903 352.74859641 704.04263697 352.00236746 704.8112306 351.2335255 C722.56474327 333.47420232 740.31668213 315.71330623 758.06835938 297.95214844 C759.2334125 296.78647485 759.2334125 296.78647485 760.42200204 295.5972523 C772.23972824 283.77322838 784.05737253 271.9491226 795.875 260.125 C808.48790809 247.50516072 821.10084816 234.88535341 833.71386719 222.265625 C834.49106657 221.48801103 835.26826595 220.71039705 836.06901683 219.90921902 C853.80194283 202.16685055 871.53531558 184.42492893 889.27009773 166.68441582 C890.01472896 165.9395436 890.75936018 165.19467139 891.52655598 164.42722728 C898.95869172 156.9927067 906.39090589 149.55826454 913.82323738 142.12393964 C929.81056334 126.13229089 945.7965025 110.13925931 961.77967247 94.1434567 C973.42390425 82.49006299 985.06983004 70.83836462 996.71755223 59.18845959 C1003.64651938 52.25807254 1010.57405195 45.32625835 1017.49960556 38.3924601 C1022.11652638 33.77031059 1026.73522784 29.14994568 1031.35542312 24.53106924 C1033.99369172 21.89344605 1036.63113113 19.25500716 1039.26640449 16.6143911 C1042.09488368 13.78021068 1044.92714744 10.94984416 1047.75985527 8.11989021 C1048.5910913 7.28574132 1049.42232733 6.45159243 1050.27875233 5.5921663 C1051.39964845 4.47425679 1051.39964845 4.47425679 1052.54318893 3.33376324 C1053.19159401 2.68497844 1053.8399991 2.03619363 1054.50805282 1.36774869 C1056 0 1056 0 1057 0 C1057 174.57 1057 349.14 1057 529 C883.42 529.33 709.84 529.66 531 530 C568.970625 567.95902344 606.94125 605.91804687 646.0625 645.02734375 C668.60380655 667.56384891 691.14507933 690.10038766 713.68572187 712.63755691 C726.89992845 725.84972217 740.11415836 739.06186409 753.32846013 752.27393413 C754.92693956 753.87214373 756.52541826 755.47035405 758.12389621 757.06856512 C783.63123531 782.57163328 809.14019179 808.07308293 834.64998926 833.57369204 C860.85616383 859.77044451 887.06070888 885.96882588 913.26318881 912.16927382 C916.95953105 915.86532788 920.65589203 919.56136322 924.3522644 923.25738716 C925.07980156 923.98485689 925.80733871 924.71232662 926.55692244 925.46184089 C938.29377002 937.19750427 950.03234691 948.93143644 961.77156278 960.66473075 C973.55796997 972.44526578 985.34257393 984.22760215 997.12531018 996.01180881 C1004.13566701 1003.02292933 1011.14743152 1010.03263534 1018.16117026 1017.04037272 C1022.83683441 1021.71230739 1027.51070713 1026.38602896 1032.18308352 1031.0612517 C1034.85137667 1033.73106527 1037.52048276 1036.40005287 1040.19176209 1039.06687891 C1043.05894523 1041.92931807 1045.9223114 1044.79554388 1048.78526306 1047.66221523 C1049.62914876 1048.50347392 1050.47303447 1049.34473261 1051.34249246 1050.21148399 C1052.47345863 1051.3458211 1052.47345863 1051.3458211 1053.62727261 1052.50307411 C1054.28363907 1053.1592846 1054.94000554 1053.81549508 1055.6162619 1054.49159073 C1057 1056 1057 1056 1057 1057 C708.19 1057 359.38 1057 0 1057 C0 708.19 0 359.38 0 0 Z " fill="#000000" transform="translate(10,10)" />
</svg>